<svg xmlns="http://www.w3.org/2000/svg" viewBox="0 0 64 64"><defs/><g id="Layer_2" data-name="Layer 2"><g id="Layer_1-2" data-name="Layer 1"><path fill="#FFF" d="M30.18 52.409 11.4 33.689c-1.374-1.529-.577-3.971 1.434-4.396a2.668 2.668 0 0 1 2.326.616l14.12 14.07V2.839C29.154.788 31.297-.631 33.136.286a2.67 2.67 0 0 1 1.474 2.553v41.35l14.11-14.27a2.671 2.671 0 0 1 3.77 0 2.63 2.63 0 0 1 .79 1.89 2.68 2.68 0 0 1-.77 1.88L34 52.399a2.669 2.669 0 0 1-3.78 0Z" class="cls-1"/><path fill="#FFF" d="M60.558 63.92 4.324 64c-4.418 0-4.291.532-4.234-3.739L0 37.33c.126-2.052 2.425-3.198 4.139-2.063A2.67 2.67 0 0 1 5.33 37.33V56c0 3.067-.432 2.67 2.67 2.67h48c3.067 0 2.67.349 2.67-2.67V37.33c.126-2.052 2.425-3.198 4.139-2.063A2.67 2.67 0 0 1 64 37.33V56c.015 8.788.625 7.92-3.442 7.92Z" class="cls-1"/></g></g></svg>