<svg xmlns="http://www.w3.org/2000/svg" viewBox="0 0 64 64"><defs/><g id="Layer_2" data-name="Layer 2"><g id="Layer_1-2" data-name="Layer 1"><path fill="#FFF" d="M59.2 23.58a4.41 4.41 0 0 1-2-4.86A9.79 9.79 0 0 0 45.27 6.81a4.4 4.4 0 0 1-4.85-2 9.79 9.79 0 0 0-16.84 0 4.39 4.39 0 0 1-4.86 2A9.79 9.79 0 0 0 6.81 18.73a4.39 4.39 0 0 1-2 4.85 9.79 9.79 0 0 0 0 16.84 4.4 4.4 0 0 1 2 4.86 9.79 9.79 0 0 0 11.92 11.91 4.4 4.4 0 0 1 4.85 2 9.79 9.79 0 0 0 16.84 0 4.41 4.41 0 0 1 4.86-2 9.79 9.79 0 0 0 11.91-11.92 4.4 4.4 0 0 1 2-4.85 9.79 9.79 0 0 0 0-16.84Zm-2.76 12.18A9.84 9.84 0 0 0 52 46.63a4.37 4.37 0 0 1-5.33 5.31 9.86 9.86 0 0 0-10.86 4.5 4.36 4.36 0 0 1-7.52 0 9.85 9.85 0 0 0-8.45-4.8 9.56 9.56 0 0 0-2.42.31 4.37 4.37 0 0 1-5.31-5.33 9.85 9.85 0 0 0-4.5-10.86 4.36 4.36 0 0 1 0-7.52 9.84 9.84 0 0 0 4.49-10.87 4.38 4.38 0 0 1 5.34-5.31 9.85 9.85 0 0 0 10.85-4.5 4.36 4.36 0 0 1 7.52 0 9.84 9.84 0 0 0 10.87 4.49A4.38 4.38 0 0 1 52 17.38a9.83 9.83 0 0 0 4.49 10.86 4.36 4.36 0 0 1 0 7.52Z" class="cls-1"/><path fill="#FFF" d="M32 18.47A13.53 13.53 0 1 0 45.53 32 13.55 13.55 0 0 0 32 18.47Zm0 21.65A8.12 8.12 0 1 1 40.12 32 8.13 8.13 0 0 1 32 40.12Z" class="cls-1"/></g></g></svg>