<svg xmlns="http://www.w3.org/2000/svg" viewBox="0 0 64 64"><defs/><g id="Layer_2" data-name="Layer 2"><g id="Layer_1-2" data-name="Layer 1"><path fill="#FFF" d="M30.18.78 11.4 19.5a2.67 2.67 0 0 0 3.76 3.78L29.28 9.21v41.14a2.67 2.67 0 1 0 5.33 0V9l14.11 14.27a2.67 2.67 0 0 0 3.77 0 2.63 2.63 0 0 0 .79-1.89 2.68 2.68 0 0 0-.77-1.88L34 .79a2.67 2.67 0 0 0-3.78 0Z" class="cls-1"/><path fill="#FFF" d="M60.558 63.92 4.324 64c-4.418 0-4.291.532-4.234-3.739L0 37.33c.126-2.052 2.425-3.198 4.139-2.063A2.67 2.67 0 0 1 5.33 37.33V56c0 3.067-.432 2.67 2.67 2.67h48c3.067 0 2.67.349 2.67-2.67V37.33c.126-2.052 2.425-3.198 4.139-2.063A2.67 2.67 0 0 1 64 37.33V56c.015 8.788.625 7.92-3.442 7.92Z" class="cls-1"/></g></g></svg>